<svg id="Layer_1" enable-background="new 0 0 512 512" height="512" viewBox="0 0 512 512" width="512" xmlns="http://www.w3.org/2000/svg"><g><circle cx="256" cy="246.126" fill="#ffdc64" r="246.126"/><path d="m447.248 372.853v-281.641c-8.48-10.456-17.8-20.2-27.857-29.135-52.198 0-207.352 0-229.131 0-11.767 0-21.311 9.539-21.311 21.311v82.59h-9.634-52.556c-11.77 0-21.311 9.541-21.311 21.311v236.278c44.237 42.531 104.335 68.685 170.548 68.686h.01c38.642-.001 75.199-8.917 107.741-24.788v-79.113h15.487 52.517c8.558-.001 15.497-6.939 15.497-15.499z" fill="#ffc305"/><g><g><g><path d="m337.483 408.1h-188.974c-11.77 0-21.311-9.541-21.311-21.311v-283.653c0-11.77 9.541-21.311 21.311-21.311h188.974z" fill="#265cde"/><path d="m323.056 81.825 21.53 168.619-21.53 157.656h66.944c8.559 0 15.498-6.939 15.498-15.498v-295.279c0-8.559-6.939-15.498-15.498-15.498z" fill="#cd2846"/><path d="m178.511 105.908h195.264v278.108h-195.264z" fill="#5fd2d0"/><path d="m337.483 408.1h-188.974c-11.77 0-21.311-9.541-21.311-21.311v-283.653c0-11.77 9.541-21.311 21.311-21.311h188.974z" fill="#265cde"/><path d="m198.905 81.825c-12.692 0-22.98 10.289-22.98 22.98v303.295h158.426c8.559 0 15.498-6.939 15.498-15.498v-295.279c0-8.559-6.939-15.498-15.498-15.498h-133.286z" fill="#f5415f"/><path d="m201.065 408.1c-11.769 0-21.311-9.541-21.311-21.311v-283.653c0-11.77 9.541-21.311 21.311-21.311h-52.557c-11.769 0-21.311 9.541-21.311 21.311v283.653c0 11.769 9.541 21.311 21.311 21.311z" fill="#cd2846"/><path d="m300.355 250.533c0 4.306-3.491 7.797-7.797 7.797h-115.725c-4.306 0-7.797-3.491-7.797-7.797v-74.62c0-4.306 3.491-7.797 7.797-7.797h115.725c4.306 0 7.797 3.491 7.797 7.797z" fill="#fff"/><path d="m300.355 175.913c0-4.306-3.491-7.797-7.797-7.797h-64.199-.884c-6.086 0-11.019 4.933-11.019 11.019v79.194h76.102c4.306 0 7.797-3.491 7.797-7.797z" fill="#fff"/><path d="m228.359 258.33c-4.306 0-7.797-3.491-7.797-7.797v-74.62c0-4.306 3.491-7.797 7.797-7.797h-51.526c-4.306 0-7.797 3.491-7.797 7.797v74.62c0 4.306 3.491 7.797 7.797 7.797z" fill="#e8d6ff"/></g><g><path d="m253.981 512h-188.974c-11.77 0-21.311-9.541-21.311-21.311v-283.653c0-11.77 9.541-21.311 21.311-21.311h188.974z" fill="#265cde"/><path d="m244.707 185.725 15.549 156.893-15.549 169.382h61.791c8.559 0 15.498-6.939 15.498-15.498v-295.279c0-8.559-6.939-15.498-15.498-15.498z" fill="#0037bd"/><path d="m95.009 209.808h195.264v278.108h-195.264z" fill="#fff"/><path d="m253.981 512h-188.974c-11.77 0-21.311-9.541-21.311-21.311v-283.653c0-11.77 9.541-21.311 21.311-21.311h188.974z" fill="#265cde"/><path d="m117.564 185.725c-13.981 0-25.315 11.334-25.315 25.315v275.645c0 13.981 11.334 25.315 25.315 25.315h133.286c8.559 0 15.498-6.939 15.498-15.498v-295.279c0-8.559-6.939-15.498-15.498-15.498z" fill="#265cde"/><path d="m209.057 362.23h-115.725c-4.306 0-7.797-3.491-7.797-7.797v-74.62c0-4.306 3.491-7.797 7.797-7.797h115.725c4.306 0 7.797 3.491 7.797 7.797v74.62c-.001 4.306-3.491 7.797-7.797 7.797z" fill="#fff"/><path d="m209.056 287.706h-64.199-48.604v-80.67c0-11.77 9.541-21.311 21.311-21.311h-52.557c-11.77 0-21.311 9.541-21.311 21.311v283.653c0 11.77 9.541 21.311 21.311 21.311h52.557c-11.769 0-21.311-9.541-21.311-21.311v-72.558c0-22.209 18.004-40.213 40.213-40.213h8.392 64.199c4.306 0 7.797-3.491 7.797-7.797v-74.62c-.001-4.305-3.491-7.795-7.798-7.795z" fill="#0037bd"/><path d="m209.056 272.016h-64.199-38.267v90.214h38.267 64.199c4.306 0 7.797-3.491 7.797-7.797v-74.62c0-4.306-3.49-7.797-7.797-7.797z" fill="#fff"/></g></g><path d="m186.269 322.169h-69.794c-2.831 0-5.125-2.295-5.125-5.125 0-2.831 2.295-5.125 5.125-5.125h37.518c4.269 0 7.729-3.46 7.729-7.729 0-4.269-3.46-7.729-7.729-7.729h-18.2c-13.5 0-24.444-10.944-24.444-24.444h-18.017c-4.306 0-7.797 3.491-7.797 7.797v74.62c0 4.306 3.491 7.797 7.797 7.797h18.017c0-13.588 11.015-24.603 24.603-24.603h50.317c4.269 0 7.729-3.46 7.729-7.729 0-4.27-3.461-7.73-7.729-7.73z" fill="#e8d6ff"/></g></g></svg>