<svg id="Capa_1" enable-background="new 0 0 512 512" height="512" viewBox="0 0 512 512" width="512" xmlns="http://www.w3.org/2000/svg"><g><g><g><g><g><g><g><g><g><circle cx="256" cy="256" fill="#ffce00" r="256"/></g></g></g></g></g></g></g></g><path d="m512 256c0-27.534-4.347-54.053-12.392-78.908l-63.922-63.922-243.156 15-128.138 119.834 46.93 46.93-44.383 41.077 175.643 175.644c4.444.229 8.917.345 13.418.345 141.385 0 256-114.615 256-256z" fill="#ffa300"/><g><g><g><g><g><g><g><g><path d="m256 413.83c-87.027 0-157.83-70.802-157.83-157.83s70.803-157.83 157.83-157.83 157.83 70.802 157.83 157.83-70.803 157.83-157.83 157.83zm0-285.66c-70.485 0-127.83 57.344-127.83 127.83s57.345 127.83 127.83 127.83 127.83-57.344 127.83-127.83-57.345-127.83-127.83-127.83z" fill="#7584f2"/></g></g></g></g></g></g></g></g><g><g><g><g><g><g><g><g><path d="m413.83 256c0-86.786-70.412-157.429-157.107-157.821v30c70.153.391 127.107 57.577 127.107 127.821s-56.954 127.43-127.107 127.821v30c86.695-.392 157.107-71.035 157.107-157.821z" fill="#606aea"/></g></g></g></g></g></g></g></g><g><g><path d="m202.594 336.011h-40.461l-27.366-5.323-27.367 5.323h-40.461v-109.067l67.827-53.191 67.828 53.191z" fill="#fff"/></g><g><path d="m202.594 226.944-67.828-53.192v.138 154.843l27.367 7.278h40.461z" fill="#e9edf5"/></g><g><path d="m205.141 248.004-70.374-55.189-70.375 55.189-18.513-23.607 88.888-69.707 88.886 69.707z" fill="#ff9500"/></g><g><path d="m134.767 154.69v38.125l70.374 55.189 18.512-23.607z" fill="#fe6a16"/></g><g><path d="m107.4 265.829h54.733v70.182h-54.733z" fill="#ff9500"/></g><g><path d="m134.761 265.829h27.372v70.182h-27.372z" fill="#fe6a16"/></g></g><g><g><path d="m435.686 336.011h-35.837l-24.76-8.145-24.761 8.145h-35.837v-222.841h121.195z" fill="#636978"/></g><g><path d="m374.193 113.17v214.991l.896-.295 24.76 8.145h35.837v-222.841z" fill="#414952"/></g><g><g><path d="m334.691 133.369h31.276v31.276h-31.276z" fill="#fff"/></g><g><path d="m384.211 133.369h31.276v31.276h-31.276z" fill="#e9edf5"/></g></g><g><g><path d="m334.691 225.078h31.276v31.276h-31.276z" fill="#fff"/></g><g><path d="m384.211 225.078h31.276v31.276h-31.276z" fill="#e9edf5"/></g></g><g><g><path d="m334.691 179.224h31.276v31.276h-31.276z" fill="#fff"/></g><g><path d="m384.211 179.224h31.276v31.276h-31.276z" fill="#e9edf5"/></g></g><g><path d="m350.328 270.853h49.52v65.158h-49.52z" fill="#fff"/></g><g><path d="m374.193 270.853h25.656v65.158h-25.656z" fill="#e9edf5"/></g></g></g></svg>