<svg height="512" viewBox="0 0 58 58" width="512" xmlns="http://www.w3.org/2000/svg"><g id="Page-1" fill="none" fill-rule="evenodd"><g id="004---Portfolio" fill-rule="nonzero"><path id="Shape" d="m49 30h7v26c-.0032948 1.1032019-.8967981 1.9967052-2 2h-50c-1.10320187-.0032948-1.9967052-.8967981-2-2v-26h7" fill="#e57e25"/><path id="Rectangle-path" d="m2 32h54v2h-54z" fill="#d25627"/><path id="Shape" d="m20 32h-10v3c0 1.6568542 1.3431458 3 3 3h4c1.6568542 0 3-1.3431458 3-3z" fill="#f0c419"/><path id="Shape" d="m38 32h10v3c0 1.6568542-1.3431458 3-3 3h-4c-1.6568542 0-3-1.3431458-3-3z" fill="#f0c419"/><path id="Shape" d="m52 55h-5c-.5522847 0-1-.4477153-1-1s.4477153-1 1-1h4v-4c0-.5522847.4477153-1 1-1s1 .4477153 1 1v5c0 .5522847-.4477153 1-1 1z" fill="#d25627"/><path id="Shape" d="m20 32h-18c-1.10320187-.0032948-1.9967052-.8967981-2-2v-11c.0032948-1.1032019.89679813-1.9967052 2-2h54c1.1032019.0032948 1.9967052.8967981 2 2v11c-.0032948 1.1032019-.8967981 1.9967052-2 2z" fill="#f29c1f"/><path id="Shape" d="m20 29v3c0 .5522847-.4477153 1-1 1h-9c-.55228475 0-1-.4477153-1-1v-3c0-1.6568542 1.3431458-3 3-3h5c1.6568542 0 3 1.3431458 3 3z" fill="#f3d55b"/><path id="Shape" d="m15 30v3h-2v-3c0-.5522847.4477153-1 1-1s1 .4477153 1 1z" fill="#b19046"/><path id="Shape" d="m49 29v3c0 .5522847-.4477153 1-1 1h-9c-.5522847 0-1-.4477153-1-1v-3c0-1.6568542 1.3431458-3 3-3h5c1.6568542 0 3 1.3431458 3 3z" fill="#f3d55b"/><path id="Shape" d="m45 30v3h-2v-3c0-.5522847.4477153-1 1-1s1 .4477153 1 1z" fill="#b19046"/><path id="Rectangle-path" d="m12 17h5v9h-5z" fill="#a56a43"/><path id="Rectangle-path" d="m41 17h5v9h-5z" fill="#a56a43"/><path id="Shape" d="m38 0h-17c-4.693049.00330924-8.4966908 3.80695104-8.5 8.5v5.5h5v-5.5c0-1.93299662 1.5670034-3.5 3.5-3.5h17c1.9329966 0 3.5 1.56700338 3.5 3.5v5.5h5v-5.5c-.0033092-4.69304896-3.806951-8.49669076-8.5-8.5z" fill="#e57e25"/><g fill="#cb8252"><path id="Shape" d="m21 17h-12l.518-2.588c.28025477-1.4021376 1.5111285-2.4116131 2.941-2.412h5.082c1.4298715.0003869 2.6607452 1.0098624 2.941 2.412z"/><path id="Shape" d="m50 17h-12l.518-2.588c.2802548-1.4021376 1.5111285-2.4116131 2.941-2.412h5.082c1.4298715.0003869 2.6607452 1.0098624 2.941 2.412z"/></g></g></g></svg>