<?xml version="1.0" encoding="iso-8859-1"?>
<!-- Generator: Adobe Illustrator 19.0.0, SVG Export Plug-In . SVG Version: 6.00 Build 0)  -->
<svg version="1.1" id="Capa_1" xmlns="http://www.w3.org/2000/svg" xmlns:xlink="http://www.w3.org/1999/xlink" x="0px" y="0px"
	 viewBox="0 0 511.999 511.999" style="enable-background:new 0 0 511.999 511.999;" xml:space="preserve">
<path style="fill:#FFC107;" d="M362.676,192H293.77l78.656-177.067c2.356-5.399-0.11-11.686-5.509-14.043
	c-1.338-0.584-2.781-0.887-4.24-0.89H149.343c-5.891-0.018-10.681,4.743-10.699,10.634c-0.001,0.289,0.01,0.577,0.032,0.865
	l21.333,277.333c0.435,5.564,5.086,9.852,10.667,9.835H203.7L224.074,502.4c0.59,5.861,5.82,10.135,11.682,9.544
	c3.86-0.389,7.205-2.843,8.734-6.408l128-298.667c2.321-5.415-0.187-11.685-5.601-14.006
	C365.557,192.292,364.124,191.999,362.676,192z"/>
<g>
</g>
<g>
</g>
<g>
</g>
<g>
</g>
<g>
</g>
<g>
</g>
<g>
</g>
<g>
</g>
<g>
</g>
<g>
</g>
<g>
</g>
<g>
</g>
<g>
</g>
<g>
</g>
<g>
</g>
</svg>
