<svg id="Capa_1" enable-background="new 0 0 512 512" height="512" viewBox="0 0 512 512" width="512" xmlns="http://www.w3.org/2000/svg"><g><g><path clip-rule="evenodd" d="m138.895 138.889h-86.516v-86.512h43.258 43.258zm22.507-128.889h-131.531c-10.942 0-19.871 8.957-19.871 19.871v131.525c0 10.942 8.929 19.87 19.871 19.87h11.651 20.523l33.591 53.545 33.591-53.545h20.523 11.651c10.942 0 19.871-8.929 19.871-19.87v-59.101-72.424c.002-10.914-8.928-19.871-19.87-19.871z" fill="#cbe459" fill-rule="evenodd"/></g><g><path clip-rule="evenodd" d="m62.045 181.266h-20.523v253.441l108.23-49.492v-203.949h-20.524l-33.591 53.546z" fill="#fff1d8" fill-rule="evenodd"/></g><g><path clip-rule="evenodd" d="m161.402 181.266h-11.651v203.949l108.201 49.492v-297.349l-76.679-35.064v59.101c.001 10.942-8.929 19.871-19.871 19.871z" fill="#ffd47b" fill-rule="evenodd"/></g><g><path clip-rule="evenodd" d="m257.953 137.358v297.349l98.025-44.843c-.198-2.721-.283-5.527-.255-8.39 0-13.804 3.827-26.702 10.46-37.7v-255.908z" fill="#fff1d8" fill-rule="evenodd"/></g><g><path clip-rule="evenodd" d="m474.384 137.358-108.201-49.492v255.907c12.785-21.231 36.086-35.432 62.676-35.432 17.207 0 33.024 5.924 45.526 15.874v-186.857z" fill="#ffd47b" fill-rule="evenodd"/></g><g><path clip-rule="evenodd" d="m428.858 353.297c-15.563 0-28.177 12.614-28.177 28.176s12.615 28.176 28.177 28.176c15.563 0 28.177-12.614 28.177-28.176s-12.614-28.176-28.177-28.176z" fill="#fff" fill-rule="evenodd"/></g><g><path clip-rule="evenodd" d="m138.895 52.377h-43.258-43.258v86.512h86.516z" fill="#ffd47b" fill-rule="evenodd"/></g><g><path clip-rule="evenodd" d="m428.858 308.341c-26.59 0-49.891 14.201-62.676 35.432-6.633 10.998-10.46 23.896-10.46 37.7-.028 2.863.057 5.669.255 8.39 2.551 35.206 23.386 58.96 44.392 86.909l16.045 18.595c3.799 4.394 8.107 6.605 12.444 6.633 4.337-.028 8.646-2.239 12.444-6.633l16.073-18.595c22.593-30.132 45.044-55.36 44.618-95.299 0-23.187-10.772-43.851-27.61-57.259-12.5-9.949-28.318-15.873-45.525-15.873zm0 101.308c-15.563 0-28.177-12.614-28.177-28.176s12.615-28.176 28.177-28.176c15.563 0 28.177 12.614 28.177 28.176s-12.614 28.176-28.177 28.176z" fill="#ff6c8a" fill-rule="evenodd"/></g><g><path d="m484.384 319.666v-182.307c0-3.913-2.282-7.466-5.84-9.094l-108.202-49.492c-2.609-1.192-5.71-1.204-8.318-.001l-104.071 47.591-66.679-30.491v-66.002c0-16.471-13.4-29.87-29.872-29.87h-131.53c-16.472 0-29.872 13.4-29.872 29.87v131.525c0 16.471 13.4 29.87 29.872 29.87h1.65v243.441c0 3.404 1.731 6.574 4.596 8.414s6.467 2.096 9.563.68l104.071-47.59 104.042 47.59c2.615 1.194 5.705 1.2 8.32 0l85.829-39.265c5.687 27.331 21.51 48.118 38.07 69.852 2.106 2.764 4.232 5.554 6.36 8.389.136.181.278.357.426.529l16.051 18.602c7.159 8.28 14.797 10.059 19.944 10.093h.065s.043 0 .065 0c5.147-.034 12.785-1.812 19.944-10.094l16.073-18.595c.151-.175.296-.355.436-.54 2.139-2.854 4.277-5.662 6.394-8.443 20.893-27.448 40.627-53.375 40.224-92.91-.018-24.492-10.688-46.534-27.611-61.752zm-20-13.334c-10.779-5.117-22.821-7.991-35.525-7.991-19.975 0-38.325 7.085-52.676 18.87v-213.774l88.201 40.344zm-444.384-144.936v-131.526c0-5.442 4.428-9.87 9.872-9.87h131.531c5.443 0 9.872 4.428 9.872 9.87v131.525c0 5.442-4.428 9.87-9.872 9.87h-32.174c-3.442 0-6.642 1.771-8.471 4.686l-25.121 40.043-25.12-40.043c-1.829-2.915-5.029-4.686-8.471-4.686h-32.174c-5.444.001-9.872-4.427-9.872-9.869zm31.522 29.87h4.992l30.651 48.86c1.829 2.915 5.029 4.686 8.471 4.686s6.642-1.771 8.471-4.686l30.652-48.86h4.992v187.526l-88.23 40.347v-227.873zm216.431 227.869v-88.174c0-5.522-4.477-10-10-10s-10 4.478-10 10v88.175l-88.201-40.344v-187.526h1.65c16.471 0 29.872-13.399 29.872-29.87v-43.532l56.679 25.919v97.351c0 5.522 4.477 10 10 10s10-4.478 10-10v-97.351l88.229-40.347v237.732c-6.645 11.933-10.45 25.654-10.46 40.251-.007.719.006 1.424.012 2.134zm187.903 43.08c-2.077 2.729-4.174 5.483-6.272 8.28l-15.846 18.332c-1.708 1.977-3.482 3.128-4.879 3.172-1.397-.044-3.17-1.195-4.873-3.165l-15.824-18.338c-2.088-2.779-4.175-5.518-6.242-8.229-19.61-25.737-36.546-47.965-36.198-80.687 0-.035 0-.071 0-.106 0-34.812 28.323-63.133 63.136-63.133s63.136 28.321 63.136 63.133v.106c.349 32.699-16.559 54.913-36.138 80.635z"/><path d="m428.858 343.297c-21.051 0-38.177 17.126-38.177 38.177 0 21.05 17.126 38.176 38.177 38.176s38.177-17.126 38.177-38.176c0-21.051-17.126-38.177-38.177-38.177zm0 56.353c-10.023 0-18.177-8.153-18.177-18.176s8.154-18.177 18.177-18.177c10.022 0 18.177 8.154 18.177 18.177s-8.154 18.176-18.177 18.176z"/><path d="m52.379 148.889h86.516c5.523 0 10-4.478 10-10v-86.512c0-5.522-4.477-10-10-10h-86.516c-5.523 0-10 4.478-10 10v86.512c0 5.522 4.477 10 10 10zm10-86.512h23.258v14.18c0 5.522 4.477 10 10 10s10-4.478 10-10v-14.18h23.258v66.512h-66.516z"/><path d="m257.953 276.032c-5.523 0-10 4.478-10 10v.057c0 5.522 4.477 9.972 10 9.972s10-4.506 10-10.028-4.477-10.001-10-10.001z"/></g></g></svg>