<?xml version="1.0" encoding="iso-8859-1"?>
<!-- Generator: Adobe Illustrator 19.0.0, SVG Export Plug-In . SVG Version: 6.00 Build 0)  -->
<svg version="1.1" id="Capa_1" xmlns="http://www.w3.org/2000/svg" xmlns:xlink="http://www.w3.org/1999/xlink" x="0px" y="0px"
	 viewBox="0 0 512 512" style="enable-background:new 0 0 512 512;" xml:space="preserve">
<g>
	<g>
		<path d="M148,450.938v-35.512C136.295,422.815,122.515,427,108,427c-14.7,0-28.413-4.268-40-11.604v35.542
			C52.964,460.764,43,477.736,43,497v15h130v-15C173,477.736,163.036,460.764,148,450.938z"/>
	</g>
</g>
<g>
	<g>
		<path d="M399,0c-38.599,0-70,31.402-70,70v10h-32v20h172V70C469,31.402,437.599,0,399,0z"/>
	</g>
</g>
<g>
	<g>
		<path d="M344,120v5c0,30.327,24.673,55,55,55c30.327,0,55-24.673,55-55v-5H344z"/>
	</g>
</g>
<g>
	<g>
		<rect x="349" y="350" width="100" height="162"/>
	</g>
</g>
<g>
	<g>
		<path d="M382.5,192.5h-113v79.431L110.611,113.043l-56.568,56.569l233.346,233.345l56.568-56.569L270.069,272.5H382.5
			c22.056,0,40-17.944,40-40C422.5,210.444,404.556,192.5,382.5,192.5z"/>
	</g>
</g>
<g>
	<g>
		<path d="M122.968,280.963l-27.955,27.955C76.513,314.506,63,331.701,63,352c0,24.813,20.187,45,45,45
			c19.752,0,36.56-12.797,42.6-30.531l28.937-28.937L122.968,280.963z"/>
	</g>
</g>
<g>
	<g>
		<path d="M452.235,177.771c-6.767,6.825-14.83,12.359-23.788,16.198c8.762,10.432,14.053,23.873,14.053,38.531
			c0,33.084-26.916,60-60,60H334V320h130V215C464,201.159,459.637,188.324,452.235,177.771z"/>
	</g>
</g>
<g>
</g>
<g>
</g>
<g>
</g>
<g>
</g>
<g>
</g>
<g>
</g>
<g>
</g>
<g>
</g>
<g>
</g>
<g>
</g>
<g>
</g>
<g>
</g>
<g>
</g>
<g>
</g>
<g>
</g>
</svg>
