<?xml version="1.0" encoding="iso-8859-1"?>
<!-- Generator: Adobe Illustrator 19.0.0, SVG Export Plug-In . SVG Version: 6.00 Build 0)  -->
<svg version="1.1" id="Capa_1" xmlns="http://www.w3.org/2000/svg" xmlns:xlink="http://www.w3.org/1999/xlink" x="0px" y="0px"
	 viewBox="0 0 480 480" style="enable-background:new 0 0 480 480;" xml:space="preserve">
<path style="fill:#78B9EB;" d="M136,328v144h16h40h144h56v-48v-64v-16v-16H136z"/>
<g>
	<path style="fill:#ABD3F3;" d="M24,328h112v144H24V328z"/>
	<path style="fill:#ABD3F3;" d="M32,0c-4.418,0-8,3.582-8,8v288h112V0H32z"/>
</g>
<path style="fill:#FBB040;" d="M384,0H136v296h256V8C392,3.582,388.418,0,384,0z"/>
<path style="fill:#FF9811;" d="M376,360h96c4.418,0,8,3.582,8,8v48c0,4.418-3.582,8-8,8h-96c-4.418,0-8-3.582-8-8v-48
	C368,363.582,371.582,360,376,360z"/>
<path style="fill:#00D7DF;" d="M392,328h16c4.418,0,8-3.582,8-8v-16c0-4.418-3.582-8-8-8H8c-4.418,0-8,3.582-8,8v16
	c0,4.418,3.582,8,8,8H392z"/>
<path style="fill:#FFDA44;" d="M192,376v96h144v-96c0-4.418-3.582-8-8-8H200C195.582,368,192,371.582,192,376z"/>
<path style="fill:#BCBEC0;" d="M416,424h16v48h-16V424z"/>
<path style="fill:#E6E7E8;" d="M0,464h480v16H0V464z"/>
<g>
	<path style="fill:#F1F2F2;" d="M48,48h64v16H48V48z"/>
	<path style="fill:#F1F2F2;" d="M48,112h64v16H48V112z"/>
	<path style="fill:#F1F2F2;" d="M48,176h64v16H48V176z"/>
	<path style="fill:#F1F2F2;" d="M48,240h64v16H48V240z"/>
	<path style="fill:#F1F2F2;" d="M48,368h64v16H48V368z"/>
	<path style="fill:#F1F2F2;" d="M48,400h64v16H48V400z"/>
	<path style="fill:#F1F2F2;" d="M48,432h64v16H48V432z"/>
	<path style="fill:#F1F2F2;" d="M48,208h64v16H48V208z"/>
	<path style="fill:#F1F2F2;" d="M48,144h64v16H48V144z"/>
	<path style="fill:#F1F2F2;" d="M48,80h64v16H48V80z"/>
	<path style="fill:#F1F2F2;" d="M160,48h16v16h-16V48z"/>
	<path style="fill:#F1F2F2;" d="M192,48h16v16h-16V48z"/>
	<path style="fill:#F1F2F2;" d="M224,48h16v16h-16V48z"/>
	<path style="fill:#F1F2F2;" d="M256,48h16v16h-16V48z"/>
	<path style="fill:#F1F2F2;" d="M288,48h16v16h-16V48z"/>
	<path style="fill:#F1F2F2;" d="M320,48h16v16h-16V48z"/>
	<path style="fill:#F1F2F2;" d="M352,48h16v16h-16V48z"/>
	<path style="fill:#F1F2F2;" d="M160,80h16v16h-16V80z"/>
	<path style="fill:#F1F2F2;" d="M192,80h16v16h-16V80z"/>
	<path style="fill:#F1F2F2;" d="M224,80h16v16h-16V80z"/>
	<path style="fill:#F1F2F2;" d="M256,80h16v16h-16V80z"/>
	<path style="fill:#F1F2F2;" d="M288,80h16v16h-16V80z"/>
	<path style="fill:#F1F2F2;" d="M320,80h16v16h-16V80z"/>
	<path style="fill:#F1F2F2;" d="M352,80h16v16h-16V80z"/>
	<path style="fill:#F1F2F2;" d="M160,112h16v16h-16V112z"/>
	<path style="fill:#F1F2F2;" d="M192,112h16v16h-16V112z"/>
	<path style="fill:#F1F2F2;" d="M224,112h16v16h-16V112z"/>
	<path style="fill:#F1F2F2;" d="M256,112h16v16h-16V112z"/>
	<path style="fill:#F1F2F2;" d="M288,112h16v16h-16V112z"/>
	<path style="fill:#F1F2F2;" d="M320,112h16v16h-16V112z"/>
	<path style="fill:#F1F2F2;" d="M352,112h16v16h-16V112z"/>
	<path style="fill:#F1F2F2;" d="M160,144h16v16h-16V144z"/>
	<path style="fill:#F1F2F2;" d="M192,144h16v16h-16V144z"/>
	<path style="fill:#F1F2F2;" d="M224,144h16v16h-16V144z"/>
	<path style="fill:#F1F2F2;" d="M256,144h16v16h-16V144z"/>
	<path style="fill:#F1F2F2;" d="M288,144h16v16h-16V144z"/>
	<path style="fill:#F1F2F2;" d="M320,144h16v16h-16V144z"/>
	<path style="fill:#F1F2F2;" d="M352,144h16v16h-16V144z"/>
	<path style="fill:#F1F2F2;" d="M160,176h16v16h-16V176z"/>
	<path style="fill:#F1F2F2;" d="M192,176h16v16h-16V176z"/>
	<path style="fill:#F1F2F2;" d="M224,176h16v16h-16V176z"/>
	<path style="fill:#F1F2F2;" d="M256,176h16v16h-16V176z"/>
	<path style="fill:#F1F2F2;" d="M288,176h16v16h-16V176z"/>
	<path style="fill:#F1F2F2;" d="M320,176h16v16h-16V176z"/>
	<path style="fill:#F1F2F2;" d="M352,176h16v16h-16V176z"/>
	<path style="fill:#F1F2F2;" d="M160,208h16v16h-16V208z"/>
	<path style="fill:#F1F2F2;" d="M192,208h16v16h-16V208z"/>
	<path style="fill:#F1F2F2;" d="M224,208h16v16h-16V208z"/>
	<path style="fill:#F1F2F2;" d="M256,208h16v16h-16V208z"/>
	<path style="fill:#F1F2F2;" d="M288,208h16v16h-16V208z"/>
	<path style="fill:#F1F2F2;" d="M320,208h16v16h-16V208z"/>
	<path style="fill:#F1F2F2;" d="M352,208h16v16h-16V208z"/>
	<path style="fill:#F1F2F2;" d="M160,240h16v16h-16V240z"/>
	<path style="fill:#F1F2F2;" d="M192,240h16v16h-16V240z"/>
	<path style="fill:#F1F2F2;" d="M224,240h16v16h-16V240z"/>
	<path style="fill:#F1F2F2;" d="M256,240h16v16h-16V240z"/>
	<path style="fill:#F1F2F2;" d="M288,240h16v16h-16V240z"/>
	<path style="fill:#F1F2F2;" d="M320,240h16v16h-16V240z"/>
	<path style="fill:#F1F2F2;" d="M352,240h16v16h-16V240z"/>
	<path style="fill:#F1F2F2;" d="M416,384h16v16h-16V384z"/>
	<path style="fill:#F1F2F2;" d="M440,384h16v16h-16V384z"/>
	<path style="fill:#F1F2F2;" d="M392,384h16v16h-16V384z"/>
</g>
<g>
</g>
<g>
</g>
<g>
</g>
<g>
</g>
<g>
</g>
<g>
</g>
<g>
</g>
<g>
</g>
<g>
</g>
<g>
</g>
<g>
</g>
<g>
</g>
<g>
</g>
<g>
</g>
<g>
</g>
</svg>
