<svg height="512" viewBox="0 0 512 512" width="512" xmlns="http://www.w3.org/2000/svg"><g id="Lawyer"><g id="Filled"><path d="m176 304h48v48h-48z" fill="#f4c2b5"/><path d="m280 344h-160a56 56 0 0 0 -56 56v112h272v-112a56 56 0 0 0 -56-56z" fill="#ffd740"/><path d="m184 344h32v48h-32z" fill="#848484"/><path d="m128 32a72 72 0 0 0 -72 72v16l30.041-16.689a81.578 81.578 0 0 0 41.959-71.311z" fill="#525252"/><path d="m176 88h120a48 48 0 0 1 48 48v-24a104 104 0 0 0 -104-104h-67.156a53.9 53.9 0 0 0 -44.844 24v8a48 48 0 0 0 48 48z" fill="#525252"/><path d="m352 168h-8v-32a48 48 0 0 0 -48-48h-120a48 48 0 0 1 -48-48v-8a81.578 81.578 0 0 1 -41.959 71.311l-30.041 16.689v48h-8a40 40 0 0 0 0 80h8v4a60 60 0 0 0 60 60h168a60 60 0 0 0 60-60v-4h8a40 40 0 0 0 0-80z" fill="#ffe7de"/><circle cx="136" cy="168" fill="#fff" r="48"/><circle cx="264" cy="168" fill="#fff" r="48"/><path d="m200 344 48 40 24-40z" fill="#ffe7a4"/><path d="m128 344 24 40 48-40z" fill="#ffe7a4"/><path d="m300.892 348.043a212.142 212.142 0 0 1 -236.892 119.357v44.6h272v-112a56.008 56.008 0 0 0 -35.108-51.957z" fill="#ffc400"/><path d="m352 168h-4.651a252.563 252.563 0 0 1 -168.129 144h104.78a60 60 0 0 0 60-60v-4h8a40 40 0 0 0 0-80z" fill="#f9d8cd"/><path d="m184 375.427v16.573h32v-32.823a55.841 55.841 0 0 1 -32 16.25z" fill="#525252"/><path d="m128 32a72.1 72.1 0 0 0 -18.142 2.309 80.106 80.106 0 0 1 -52.841 57.678 72.4 72.4 0 0 0 -1.017 12.013v16l30.041-16.689a81.578 81.578 0 0 0 41.959-71.311z" fill="#3f3f3f"/><path d="m279.676 15.844a95.927 95.927 0 0 1 -42.618 72.156h58.942a47.993 47.993 0 0 1 47.956 46.242l.044.02v-22.262a104.027 104.027 0 0 0 -64.324-96.156z" fill="#3f3f3f"/><circle cx="152" cy="36" fill="#848484" r="12"/><circle cx="84" cy="372" fill="#ffe7a4" r="12"/><circle cx="176" cy="48" fill="#848484" r="8"/><circle cx="112" cy="392" fill="#ffe7a4" r="8"/><circle cx="84" cy="236" fill="#fff5f2" r="12"/><circle cx="316" cy="236" fill="#fff5f2" r="12"/><path d="m224 504v8h-48v-8l8-112h32z" fill="#525252"/><path d="m224 504v8h-48v-8l1.81-25.4a116.514 116.514 0 0 0 42.16-30.98z" fill="#262626"/><path d="m312 416v68.444c0 10.8 7.163 19.556 16 19.556h152c8.837 0 16-8.755 16-19.556v-68.444z" fill="#c97e67"/><path d="m451.972 424a136.027 136.027 0 0 1 -123.972 80h152c8.837 0 16-8.755 16-19.556v-60.444z" fill="#c0694e"/><path d="m312 376h184a8 8 0 0 1 8 8v24a32 32 0 0 1 -32 32h-136a32 32 0 0 1 -32-32v-24a8 8 0 0 1 8-8z" fill="#c97e67"/><path d="m504 384a8 8 0 0 0 -8-8h-68.318a123.865 123.865 0 0 1 -103.682 56c-3.225 0-6.418-.131-9.58-.375a31.879 31.879 0 0 0 21.58 8.375h136a32 32 0 0 0 32-32z" fill="#c0694e"/><g fill="#e8beb3"><circle cx="320" cy="388" r="12"/><circle cx="344" cy="400" r="8"/><circle cx="324" cy="468" r="12"/><circle cx="348" cy="480" r="8"/></g><path d="m159.044 135.335a39.969 39.969 0 0 1 -62.088 41.33 39.994 39.994 0 1 0 62.088-41.33z" fill="#f5f5f5"/><path d="m287.044 135.335a39.969 39.969 0 0 1 -62.088 41.33 39.994 39.994 0 1 0 62.088-41.33z" fill="#f5f5f5"/></g><g id="Outline"><circle cx="56" cy="216" r="8"/><circle cx="344" cy="216" r="8"/><path d="m291.9 31.22.011.01a13.66 13.66 0 1 0 -.011-.01z"/><path d="m103.82 140.39a8 8 0 1 0 -5.94-2.64 7.974 7.974 0 0 0 5.94 2.64z"/><path d="m231.82 140.38a8 8 0 1 0 -5.94-2.63 7.964 7.964 0 0 0 5.94 2.63z"/><path d="m496 456a8 8 0 0 0 -8 8v24a8.009 8.009 0 0 1 -8 8h-152a8.009 8.009 0 0 1 -8-8v-24a8 8 0 0 0 -16 0v24a24.028 24.028 0 0 0 24 24h152a24.028 24.028 0 0 0 24-24v-24a8 8 0 0 0 -8-8z"/><path d="m496 368h-44v-8a24.027 24.027 0 0 0 -24-24h-48a24.027 24.027 0 0 0 -24 24v8h-44a16.019 16.019 0 0 0 -16 16v24a40.045 40.045 0 0 0 40 40h60v8a8 8 0 0 0 16 0v-8h60a40.045 40.045 0 0 0 40-40v-24a16.019 16.019 0 0 0 -16-16zm-124-8a8.009 8.009 0 0 1 8-8h48a8.009 8.009 0 0 1 8 8v8h-64zm124 48a24.028 24.028 0 0 1 -24 24h-60v-8a8 8 0 0 0 -16 0v8h-60a24.028 24.028 0 0 1 -24-24l-.01-24h184.01z"/><path d="m305.005 349.243a8 8 0 0 0 -5.121-10.088 63.971 63.971 0 0 0 -19.884-3.155h-48v-16h52a68 68 0 0 0 67.88-64h.12a48 48 0 1 0 0-96v-48a111.544 111.544 0 0 0 -25.771-71.47 8 8 0 0 0 -14.12 4.37 8.026 8.026 0 0 0 1.811 5.85 96.15 96.15 0 0 1 20.634 44.693 55.784 55.784 0 0 0 -38.554-15.443h-120a40.045 40.045 0 0 1 -40-40 8 8 0 0 0 -.215-1.817c.082-1.183.136-2.372.171-3.563a45.763 45.763 0 0 1 36.884-18.62h67.16a96.557 96.557 0 0 1 25.03 3.29 7.722 7.722 0 0 0 2.079.28 8 8 0 0 0 7.721-5.92 8.008 8.008 0 0 0 -5.641-9.81 112.274 112.274 0 0 0 -29.189-3.84h-67.16a61.879 61.879 0 0 0 -49.02 24.11 80.006 80.006 0 0 0 -75.82 79.89v56a48 48 0 1 0 0 96h.12a68 68 0 0 0 67.88 64h52v16h-48a64.072 64.072 0 0 0 -64 64v104a8 8 0 0 0 16 0v-104a48.055 48.055 0 0 1 48-48h3.47l26.476 44.125 26.054-21.711v17.3l-5.68 79.52a8.016 8.016 0 0 0 7.41 8.55c.19.01.39.02.58.02a8.031 8.031 0 0 0 7.97-7.43l5.169-72.374h17.1l5.169 72.37a8.031 8.031 0 0 0 7.97 7.43 5.633 5.633 0 0 0 .58-.03 7.975 7.975 0 0 0 7.41-8.54l-5.678-79.52v-17.3l26.054 21.711 26.476-44.121h3.47a47.949 47.949 0 0 1 14.917 2.365 8 8 0 0 0 10.088-5.122zm-241.005-245.243a64.007 64.007 0 0 1 55.489-63.425 73.62 73.62 0 0 1 -37.334 55.743l-18.155 10.082zm0 20.707 25.926-14.4a89.565 89.565 0 0 0 38.113-41.426 56.021 56.021 0 0 0 47.961 27.119h120a40.045 40.045 0 0 1 40 40v24h-16.573a55.94 55.94 0 0 0 -55.427-48c-1.271 0-2.55.04-3.82.13a8 8 0 0 0 .53 15.98c.18 0 .359-.01.55-.02.9-.06 1.82-.09 2.74-.09a39.966 39.966 0 1 1 -39.43 33.24 8 8 0 0 0 -6.55-9.23 8.677 8.677 0 0 0 -1.35-.11 7.978 7.978 0 0 0 -7.88 6.66c-.08.477-.143.959-.211 1.44h-17.151a55.941 55.941 0 0 0 -55.428-48c-1.27 0-2.56.04-3.82.13a7.99 7.99 0 0 0 -7.44 8.52 8.035 8.035 0 0 0 8.52 7.44c.9-.06 1.82-.09 2.74-.09a39.966 39.966 0 1 1 -39.43 33.24 8.018 8.018 0 0 0 -6.55-9.23 8.778 8.778 0 0 0 -1.35-.11 7.978 7.978 0 0 0 -7.88 6.66c-.08.477-.143.959-.212 1.44h-16.578zm90.054 247.168-11.924-19.875h35.77zm53.946 12.125h-16v-22.919l8-6.667 8 6.667zm8-48h-32v-16h32zm-100-32a52 52 0 0 1 -52-52v-11.95l-16-.05a32 32 0 1 1 0-64v8a8 8 0 0 0 16 0v-8h16.573a55.993 55.993 0 0 0 110.854 0h17.145a55.993 55.993 0 0 0 110.855 0h16.573v8a8 8 0 0 0 16 0v-8a32 32 0 1 1 0 64h-15.95l-.05 12a52 52 0 0 1 -52 52zm129.946 67.875-23.846-19.875h35.77z"/><path d="m223.99 495.71c-.2 0-.39.01-.58.02a8.005 8.005 0 0 0 .56 15.99c.2 0 .39-.01.58-.02a8.005 8.005 0 0 0 -.56-15.99z"/><path d="m176.59 495.74a8 8 0 1 0 -1.14 15.96c.19.01.39.02.58.02a8 8 0 0 0 .56-15.98z"/><path d="m112 416a8 8 0 0 0 -8 8v80a8 8 0 0 0 16 0v-80a8 8 0 0 0 -8-8z"/><path d="m219.563 233.344a35.176 35.176 0 0 1 -39.125 0 8 8 0 1 0 -8.875 13.312 51.129 51.129 0 0 0 56.875 0 8 8 0 0 0 -8.875-13.312z"/></g></g></svg>