<svg id="bold" enable-background="new 0 0 32 32" height="512" viewBox="0 0 32 32" width="512" xmlns="http://www.w3.org/2000/svg"><path d="m26 32h-20c-3.314 0-6-2.686-6-6v-20c0-3.314 2.686-6 6-6h20c3.314 0 6 2.686 6 6v20c0 3.314-2.686 6-6 6z" fill="#fff9dd"/><g fill="#ffd200"><path d="m19 15.35v-4.017h-.333v-.833c0-.643-.523-1.167-1.167-1.167h-3c-.643 0-1.167.523-1.167 1.167v.833h-.333v4.017c.564.082 1 .564 1 1.15v1c0 .586-.436 1.068-1 1.15v4.017h6v-4.017c-.564-.082-1-.564-1-1.15v-1c0-.586.436-1.068 1-1.15zm-4.667-4.85c0-.092.075-.167.167-.167h3c.092 0 .167.075.167.167v.833h-3.333v-.833z"/><path d="m22.167 11.333h-1.833v4.017c.564.082 1 .564 1 1.15v1c0 .586-.436 1.068-1 1.15v4.017h1.833c1.011 0 1.833-.822 1.833-1.833v-7.667c0-1.011-.822-1.834-1.833-1.834z"/><path d="m11.667 18.65c-.564-.082-1-.564-1-1.15v-1c0-.586.436-1.068 1-1.15v-4.017h-1.834c-1.011 0-1.833.823-1.833 1.834v7.667c0 1.011.822 1.833 1.833 1.833h1.833v-4.017z"/></g></svg>