<svg height="512" viewBox="0 0 64 64" width="512" xmlns="http://www.w3.org/2000/svg"><g id="computer-teacher-learning-online_education-online_learning" data-name="computer-teacher-learning-online education-online learning"><path d="m41 22v-.25l-2.82-.8a3.121 3.121 0 0 1 .64 1.05z"/><circle cx="36" cy="23" r="1"/><path d="m43 20v-1a11 11 0 0 0 -22 0v1h.7l5.75-3.83a.955.955 0 0 1 .82-.13l13.87 3.96z"/><path d="m4 43a3.009 3.009 0 0 0 3 3h50a3.009 3.009 0 0 0 3-3v-3h-56zm50-1h2v2h-2zm-4 0h2v2h-2z"/><path d="m28 20a3.01 3.01 0 0 1 2.82 2h2.36a2.984 2.984 0 0 1 2.06-1.89l-7.07-2.02-5.17 3.45v.46h2.18a3.01 3.01 0 0 1 2.82-2z"/><path d="m28 48h8v6h-8z"/><path d="m44 56h-24a1 1 0 0 0 -1 1v3h26v-3a1 1 0 0 0 -1-1z"/><path d="m57 4h-50a3.009 3.009 0 0 0 -3 3v31h12v-1a5 5 0 0 1 5-5h4.7a10.976 10.976 0 0 1 -4.7-9v-1h-1a1 1 0 0 1 -1-1v-2a13 13 0 0 1 26 0v2a1 1 0 0 1 -1 1h-1v1a10.976 10.976 0 0 1 -4.7 9h4.7a5 5 0 0 1 5 5v1h12v-31a3.009 3.009 0 0 0 -3-3z"/><path d="m43 34h-22a3.009 3.009 0 0 0 -3 3v1h28v-1a3.009 3.009 0 0 0 -3-3z"/><circle cx="28" cy="23" r="1"/><path d="m32 32a9.016 9.016 0 0 0 8.94-8h-2.12a2.988 2.988 0 0 1 -5.64 0h-2.36a2.988 2.988 0 0 1 -5.64 0h-2.12a9.016 9.016 0 0 0 8.94 8zm-2-4h4v2h-4z"/></g></svg>